<svg width="1075" height="309" viewBox="0 0 1075 309" fill="none" xmlns="http://www.w3.org/2000/svg">
<rect width="1075" height="309" fill="#030303"/>
<path d="M185.688 137.937V116.5C185.688 108.812 179.813 100.312 172.625 97.625L141.438 85.9375C136.25 84 127.75 84 122.562 85.9375L91.375 97.6875C84.1875 100.375 78.3125 108.875 78.3125 116.5V162.937C78.3125 170.312 83.1875 180 89.125 184.437L116 204.5C120.375 207.875 126.188 209.5 132 209.5" stroke="white" stroke-width="7" stroke-linecap="round" stroke-linejoin="round"/>
<path d="M188.219 203.25H188.281" stroke="#4471FB" stroke-width="5" stroke-linecap="round" stroke-linejoin="round"/>
<path d="M157 198.041C171.383 198.041 183.042 186.382 183.042 172C183.042 157.617 171.383 145.958 157 145.958C142.617 145.958 130.958 157.617 130.958 172C130.958 186.382 142.617 198.041 157 198.041Z" stroke="#4471FB" stroke-width="3" stroke-linecap="round" stroke-linejoin="round"/>
<path d="M146.583 148.562H149.187C144.109 163.775 144.109 180.225 149.187 195.438H146.583M164.812 148.562C169.891 163.775 169.891 180.225 164.812 195.438" stroke="#4471FB" stroke-width="3" stroke-linecap="round" stroke-linejoin="round"/>
<path d="M133.562 182.417V179.812C148.775 184.89 165.225 184.89 180.438 179.812V182.417M133.562 164.187C148.775 159.109 165.225 159.109 180.438 164.187" stroke="#4471FB" stroke-width="3" stroke-linecap="round" stroke-linejoin="round"/>
<path d="M235.969 98.88H256.049C264.849 98.88 271.409 101.52 275.729 106.96C279.729 111.76 281.729 118.64 281.729 127.44C281.729 136.08 279.409 142.88 274.849 148C270.049 153.28 263.249 156 254.609 156H235.969V98.88ZM239.089 101.76V153.12H254.289C262.129 153.12 268.209 150.72 272.449 146.08C276.529 141.52 278.609 135.28 278.609 127.44C278.609 119.2 276.849 112.96 273.489 108.72C269.649 104.08 263.809 101.76 255.809 101.76H239.089Z" fill="white"/>
<path d="M570.912 120.776H577.524V163H571.376V159.81C569.288 162.478 566.272 163.812 562.328 163.812C557.862 163.812 554.382 162.246 551.888 159.114C549.568 156.214 548.408 152.444 548.408 147.862C548.408 143.454 549.51 139.8 551.83 136.9C554.266 133.768 557.688 132.202 561.98 132.202C565.46 132.202 568.418 133.826 570.912 137.132V120.776ZM563.546 137.538C560.53 137.538 558.384 138.524 556.992 140.496C555.774 142.178 555.194 144.614 555.194 147.862C555.194 151.11 555.716 153.604 556.876 155.344C558.21 157.432 560.356 158.476 563.314 158.476C565.866 158.476 567.896 157.432 569.288 155.402C570.506 153.546 571.144 151.11 571.144 148.21V147.746C571.144 144.556 570.332 142.004 568.824 140.148C567.432 138.408 565.634 137.538 563.546 137.538ZM598.857 132.202C603.265 132.202 606.397 133.826 608.311 137.074C609.703 135.218 611.153 133.942 612.661 133.246C613.995 132.55 615.677 132.202 617.707 132.202C620.781 132.202 623.333 133.188 625.421 135.276C627.393 137.364 628.437 140.032 628.437 143.338V163H621.825V144.498C621.825 142.12 621.303 140.38 620.317 139.336C619.273 138.234 617.649 137.712 615.329 137.712C613.705 137.712 612.371 138.292 611.269 139.568C610.109 140.786 609.587 142.468 609.587 144.672V163H602.975V144.556C602.975 139.974 601.003 137.712 597.059 137.712C595.145 137.712 593.637 138.408 592.477 139.916C591.317 141.308 590.737 143.048 590.737 145.02V163H584.125V133.014H590.737V136.088C593.231 133.478 595.957 132.202 598.857 132.202ZM639.518 120.776C640.794 120.776 641.896 121.182 642.766 121.994C643.578 122.806 644.042 123.85 644.042 125.126C644.042 126.402 643.578 127.504 642.708 128.316C641.838 129.128 640.794 129.534 639.518 129.534C638.242 129.534 637.198 129.128 636.328 128.316C635.458 127.446 635.052 126.402 635.052 125.126C635.052 123.85 635.458 122.806 636.328 121.994C637.198 121.182 638.242 120.776 639.518 120.776ZM636.212 133.014H642.824V163H636.212V133.014ZM666.177 132.202C673.659 132.202 677.429 136.262 677.429 144.498V163H670.817V145.078C670.817 140.148 668.555 137.712 664.031 137.712C662.407 137.712 660.957 138.292 659.739 139.452C658.347 140.728 657.535 142.584 657.303 144.962V163H650.691V133.014H657.303V136.494C658.463 135.102 659.797 134 661.247 133.304C662.755 132.55 664.379 132.202 666.177 132.202Z" fill="white"/>
<path d="M501.624 98.88H505.464L528.664 156H525.224L518.024 137.92H489.144L481.864 156H478.344L501.624 98.88ZM490.264 135.04H516.904L503.704 102.24H503.464L490.264 135.04Z" fill="white"/>
<path d="M517.624 110.88H521.464L544.664 168H541.224L534.024 149.92H505.144L497.864 168H494.344L517.624 110.88ZM506.264 147.04H532.904L519.704 114.24H519.464L506.264 147.04Z" fill="#4471FB"/>
<path d="M313.615 132.202C318.139 132.202 321.793 133.652 324.577 136.668C327.303 139.626 328.695 143.396 328.695 148.036C328.695 152.618 327.303 156.388 324.635 159.288C321.851 162.304 318.139 163.812 313.615 163.812C309.033 163.812 305.379 162.304 302.595 159.288C299.869 156.388 298.535 152.618 298.535 148.036C298.535 143.396 299.869 139.626 302.653 136.668C305.379 133.652 309.033 132.202 313.615 132.202ZM313.615 137.596C310.831 137.596 308.743 138.64 307.235 140.844C305.959 142.7 305.321 145.136 305.321 148.036C305.321 150.936 305.959 153.314 307.235 155.17C308.743 157.316 310.831 158.418 313.615 158.418C316.341 158.418 318.487 157.316 319.995 155.17C321.271 153.256 321.967 150.878 321.967 148.036C321.967 145.136 321.271 142.7 319.995 140.844C318.487 138.64 316.341 137.596 313.615 137.596ZM348.872 132.202C353.28 132.202 356.412 133.826 358.326 137.074C359.718 135.218 361.168 133.942 362.676 133.246C364.01 132.55 365.692 132.202 367.722 132.202C370.796 132.202 373.348 133.188 375.436 135.276C377.408 137.364 378.452 140.032 378.452 143.338V163H371.84V144.498C371.84 142.12 371.318 140.38 370.332 139.336C369.288 138.234 367.664 137.712 365.344 137.712C363.72 137.712 362.386 138.292 361.284 139.568C360.124 140.786 359.602 142.468 359.602 144.672V163H352.99V144.556C352.99 139.974 351.018 137.712 347.074 137.712C345.16 137.712 343.652 138.408 342.492 139.916C341.332 141.308 340.752 143.048 340.752 145.02V163H334.14V133.014H340.752V136.088C343.246 133.478 345.972 132.202 348.872 132.202ZM398.696 132.202C403.104 132.202 406.41 133.304 408.498 135.508C410.354 137.422 411.282 140.206 411.282 143.86V163H405.134V159.056C403.974 160.564 402.524 161.666 400.842 162.478C398.928 163.348 396.666 163.812 394.056 163.812C390.924 163.812 388.488 163 386.69 161.434C384.834 159.81 383.906 157.78 383.906 155.286C383.906 151.922 385.182 149.312 387.85 147.514C390.286 145.774 393.708 144.846 398.116 144.73L404.67 144.556V143.396C404.67 139.452 402.524 137.538 398.232 137.538C396.376 137.538 394.926 137.828 393.824 138.524C392.548 139.278 391.678 140.438 391.33 142.004L384.776 141.482C385.414 138.176 387.038 135.74 389.648 134.232C391.852 132.84 394.868 132.202 398.696 132.202ZM404.67 149.312L398.58 149.486C393.302 149.602 390.692 151.458 390.692 155.054C390.692 156.098 391.098 156.968 392.026 157.664C392.954 158.36 394.114 158.766 395.564 158.766C398.116 158.766 400.262 158.012 402.002 156.562C403.742 155.054 404.67 153.14 404.67 150.82V149.312ZM422.39 120.776C423.666 120.776 424.768 121.182 425.638 121.994C426.45 122.806 426.914 123.85 426.914 125.126C426.914 126.402 426.45 127.504 425.58 128.316C424.71 129.128 423.666 129.534 422.39 129.534C421.114 129.534 420.07 129.128 419.2 128.316C418.33 127.446 417.924 126.402 417.924 125.126C417.924 123.85 418.33 122.806 419.2 121.994C420.07 121.182 421.114 120.776 422.39 120.776ZM419.084 133.014H425.696V163H419.084V133.014ZM449.049 132.202C456.531 132.202 460.301 136.262 460.301 144.498V163H453.689V145.078C453.689 140.148 451.427 137.712 446.903 137.712C445.279 137.712 443.829 138.292 442.611 139.452C441.219 140.728 440.407 142.584 440.175 144.962V163H433.563V133.014H440.175V136.494C441.335 135.102 442.669 134 444.119 133.304C445.627 132.55 447.251 132.202 449.049 132.202Z" fill="white"/>
<path d="M245.303 110.88H265.383C274.183 110.88 280.743 113.52 285.063 118.96C289.063 123.76 291.063 130.64 291.063 139.44C291.063 148.08 288.743 154.88 284.183 160C279.383 165.28 272.583 168 263.943 168H245.303V110.88ZM248.423 113.76V165.12H263.623C271.463 165.12 277.543 162.72 281.783 158.08C285.863 153.52 287.943 147.28 287.943 139.44C287.943 131.2 286.183 124.96 282.823 120.72C278.983 116.08 273.143 113.76 265.143 113.76H248.423Z" fill="#4471FB"/>
<path d="M232.72 192.224H237.676V190.096H239.636V192.224H249.296V190.096H251.256V192.224H256.212V193.932H251.256V203.2H256.632V204.992H250.808C252.152 206.672 254.252 207.988 257.052 208.94L256.24 210.676C252.768 209.22 250.304 207.316 248.848 204.992H240.056C238.6 207.316 236.248 209.248 233 210.76L231.964 209.052C234.736 207.988 236.78 206.644 238.124 204.992H232.3V203.2H237.676V193.932H232.72V192.224ZM239.636 203.2H249.296V201.184H239.636V203.2ZM239.636 199.588H249.296V197.6H239.636V199.588ZM239.636 196.004H249.296V193.932H239.636V196.004ZM243.5 205.972H245.46V208.212H251.144V210.004H245.46V212.972H255.064V214.848H233.7V212.972H243.5V210.004H237.76V208.212H243.5V205.972ZM261.535 191.216H282.563V193.176H273.407V200.792H284.523V202.808H273.407V212.748C273.407 214.568 272.455 215.492 270.579 215.492H266.211L265.791 213.56C267.219 213.616 268.591 213.672 269.879 213.672C270.859 213.672 271.363 213.196 271.363 212.244V202.808H259.771V200.792H271.363V193.176H261.535V191.216ZM287.83 193.008H296.006C300.598 193.008 302.894 194.968 302.894 198.888C302.894 202.836 300.57 204.824 295.978 204.824H290.126V213H287.83V193.008ZM290.126 194.996V202.836H295.866C297.49 202.836 298.666 202.5 299.45 201.856C300.206 201.212 300.598 200.232 300.598 198.888C300.598 197.544 300.206 196.564 299.422 195.976C298.638 195.304 297.462 194.996 295.866 194.996H290.126ZM303.585 198.524H306.021L310.445 209.948L314.729 198.524H317.193L309.269 218.544H306.833L309.325 212.664L303.585 198.524ZM322.603 193.848V198.524H326.187V200.4H322.603V209.612C322.603 210.144 322.687 210.536 322.911 210.76C323.107 210.984 323.471 211.124 323.975 211.124H325.823V213H323.639C322.463 213 321.595 212.692 321.091 212.076C320.615 211.516 320.391 210.704 320.391 209.612V200.4H317.479V198.524H320.391V194.772L322.603 193.848ZM328.358 192.616H330.598V200.904C331.102 199.98 331.774 199.28 332.614 198.804C333.398 198.356 334.266 198.132 335.246 198.132C336.926 198.132 338.242 198.608 339.138 199.616C340.034 200.596 340.482 202.024 340.482 203.872V213H338.242V204.208C338.242 202.864 337.906 201.828 337.29 201.1C336.618 200.372 335.694 200.008 334.49 200.008C333.37 200.008 332.446 200.456 331.718 201.352C330.962 202.248 330.598 203.396 330.598 204.74V213H328.358V192.616ZM350.052 198.132C352.208 198.132 353.944 198.86 355.232 200.372C356.464 201.8 357.08 203.592 357.08 205.776C357.08 207.932 356.464 209.724 355.26 211.124C353.944 212.636 352.208 213.392 350.052 213.392C347.868 213.392 346.16 212.636 344.872 211.124C343.64 209.724 343.024 207.932 343.024 205.776C343.024 203.592 343.64 201.8 344.872 200.372C346.16 198.86 347.868 198.132 350.052 198.132ZM350.052 200.008C348.512 200.008 347.308 200.596 346.468 201.772C345.684 202.836 345.32 204.152 345.32 205.776C345.32 207.372 345.684 208.688 346.468 209.752C347.308 210.928 348.512 211.516 350.052 211.516C351.564 211.516 352.768 210.928 353.664 209.752C354.42 208.688 354.812 207.344 354.812 205.776C354.812 204.152 354.42 202.836 353.664 201.772C352.768 200.596 351.564 200.008 350.052 200.008ZM366.433 198.132C370.017 198.132 371.837 200.12 371.837 204.096V213H369.597V204.264C369.597 201.436 368.309 200.036 365.789 200.036C364.781 200.036 363.913 200.4 363.185 201.128C362.401 201.912 361.981 202.948 361.897 204.264V213H359.657V198.524H361.897V200.652C362.401 199.84 363.045 199.224 363.829 198.804C364.613 198.356 365.481 198.132 366.433 198.132ZM389.751 198.692H391.655V204.796H397.759V206.7H391.655V212.832H389.751V206.7H383.619V204.796H389.751V198.692ZM407.969 193.008H410.489L416.733 210.508H416.817L423.061 193.008H425.581L418.189 213H415.361L407.969 193.008ZM427.115 198.524H429.355V207.372C429.355 208.744 429.635 209.78 430.223 210.452C430.811 211.124 431.763 211.488 433.079 211.488C434.031 211.488 434.899 211.096 435.655 210.368C436.439 209.584 436.915 208.576 437.083 207.344V198.524H439.323V213H437.083V210.76C435.907 212.496 434.339 213.392 432.379 213.392C428.851 213.392 427.115 211.404 427.115 207.484V198.524ZM448.414 198.132C450.738 198.132 452.502 198.916 453.678 200.484C454.742 201.884 455.302 203.872 455.358 206.392H443.934C444.046 208.016 444.466 209.276 445.25 210.172C446.034 211.068 447.126 211.516 448.498 211.516C449.674 211.516 450.654 211.208 451.382 210.62C451.998 210.116 452.474 209.36 452.838 208.352H455.078C454.742 209.752 454.098 210.872 453.118 211.768C451.914 212.832 450.374 213.392 448.498 213.392C446.426 213.392 444.746 212.692 443.514 211.348C442.226 209.948 441.61 208.1 441.61 205.748C441.61 203.62 442.198 201.828 443.43 200.4C444.662 198.888 446.314 198.132 448.414 198.132ZM448.47 200.008C447.182 200.008 446.146 200.428 445.362 201.268C444.578 202.108 444.13 203.228 443.99 204.656H453.034C452.754 201.548 451.214 200.008 448.47 200.008ZM464.507 192.616C466.411 192.616 467.979 193.092 469.155 194.072C470.303 195.052 470.891 196.368 470.891 198.048C470.891 200.288 469.799 201.8 467.615 202.528C468.791 202.892 469.687 203.452 470.303 204.236C470.975 205.02 471.311 206 471.311 207.176C471.311 208.996 470.667 210.48 469.407 211.628C468.119 212.804 466.439 213.392 464.367 213.392C462.463 213.392 460.923 212.888 459.719 211.936C458.291 210.76 457.507 209.052 457.339 206.812H459.663C459.719 208.38 460.251 209.584 461.231 210.396C462.071 211.068 463.107 211.432 464.367 211.432C465.795 211.432 466.943 211.012 467.811 210.2C468.595 209.416 469.015 208.436 469.015 207.26C469.015 206.056 468.623 205.132 467.839 204.46C467.055 203.788 465.991 203.48 464.591 203.48H462.967V201.688H464.507C465.851 201.688 466.859 201.38 467.559 200.792C468.259 200.176 468.623 199.308 468.623 198.188C468.623 197.068 468.259 196.2 467.587 195.584C466.859 194.912 465.823 194.604 464.535 194.604C463.191 194.604 462.155 194.94 461.399 195.668C460.615 196.396 460.167 197.432 460.027 198.776H457.759C457.927 196.844 458.655 195.332 459.887 194.24C461.063 193.148 462.603 192.616 464.507 192.616ZM476.063 209.668C476.511 209.668 476.931 209.836 477.267 210.172C477.603 210.508 477.771 210.9 477.771 211.404C477.771 211.88 477.603 212.272 477.267 212.608C476.931 212.944 476.511 213.112 476.063 213.112C475.559 213.112 475.167 212.944 474.859 212.608C474.523 212.272 474.355 211.88 474.355 211.404C474.355 210.9 474.523 210.508 474.859 210.172C475.167 209.836 475.559 209.668 476.063 209.668ZM483.281 193.064C483.757 193.064 484.177 193.204 484.513 193.54C484.821 193.82 484.989 194.212 484.989 194.716C484.989 195.192 484.821 195.584 484.513 195.92C484.177 196.228 483.757 196.396 483.281 196.396C482.805 196.396 482.413 196.228 482.077 195.92C481.741 195.584 481.601 195.192 481.601 194.716C481.601 194.212 481.741 193.82 482.077 193.54C482.413 193.204 482.805 193.064 483.281 193.064ZM482.161 198.524H484.401V214.68C484.401 217.256 483.029 218.544 480.341 218.544H478.997V216.668H480.173C481.489 216.668 482.161 215.968 482.161 214.596V198.524ZM493.408 198.132C496.992 198.132 498.952 199.616 499.344 202.64H497.16C496.964 201.744 496.6 201.072 496.04 200.68C495.424 200.232 494.528 200.008 493.38 200.008C492.372 200.008 491.588 200.176 491.028 200.568C490.412 200.932 490.104 201.436 490.104 202.08C490.104 202.696 490.496 203.228 491.336 203.648C491.868 203.9 492.876 204.208 494.332 204.6C496.068 205.02 497.3 205.468 498.056 205.944C499.204 206.672 499.792 207.652 499.792 208.912C499.792 211.88 497.748 213.392 493.66 213.392C489.852 213.392 487.78 211.712 487.444 208.38H489.628C489.796 209.528 490.216 210.34 490.832 210.844C491.448 211.292 492.372 211.516 493.604 211.516C496.18 211.516 497.496 210.676 497.496 209.052C497.496 208.24 497.02 207.624 496.124 207.176C495.648 206.952 494.612 206.644 493.044 206.252C491.336 205.832 490.132 205.412 489.46 204.964C488.34 204.292 487.808 203.368 487.808 202.136C487.808 200.904 488.34 199.952 489.432 199.224C490.44 198.496 491.784 198.132 493.408 198.132ZM513.766 215.492H511.414L510.994 213.588C511.722 213.672 512.422 213.728 513.094 213.728C513.85 213.728 514.242 213.308 514.242 212.468V205.776C513.122 206.224 512.002 206.644 510.826 207.036L510.322 205.048C511.666 204.712 512.954 204.292 514.242 203.816V197.208H510.854V195.276H514.242V190.152H516.202V195.276H519.17V197.208H516.202V203.004C517.238 202.5 518.246 201.996 519.226 201.436V203.396C518.218 203.956 517.21 204.46 516.202 204.936V212.972C516.202 214.652 515.39 215.492 513.766 215.492ZM520.178 194.184H526.898V190.208H528.858V194.184H535.606V196.116H528.858V200.68H534.514V202.472C533.534 205.552 531.91 208.184 529.642 210.368C531.49 211.796 533.758 213.056 536.418 214.148L535.354 215.828C532.554 214.596 530.174 213.168 528.27 211.6C526.086 213.336 523.426 214.764 520.29 215.884L519.338 214.204C522.306 213.224 524.826 211.936 526.87 210.34C524.518 208.044 522.978 205.468 522.194 202.584H520.71V200.68H526.898V196.116H520.178V194.184ZM524.07 202.584C524.798 205.048 526.198 207.232 528.214 209.164C530.146 207.288 531.574 205.104 532.498 202.584H524.07ZM539.137 196.76H550.001V190.068H552.017V196.76H562.909V198.692H554.033C555.881 203.34 559.101 207.484 563.721 211.124L562.377 212.832C557.449 208.632 554.033 203.9 552.129 198.692H552.017V215.744H550.001V198.692H549.889C547.817 204.516 544.261 209.304 539.277 213L538.185 211.208C542.721 207.96 545.997 203.788 547.985 198.692H539.137V196.76ZM556.525 190.124C558.205 191.86 559.493 193.372 560.389 194.66L558.793 195.808C557.841 194.38 556.581 192.812 554.957 191.104L556.525 190.124ZM566.384 195.416H570.248V190.208H572.18V195.416H575.316V197.292H572.18V198.664C573.412 200.232 574.644 202.024 575.904 203.984L574.728 205.776C573.748 203.648 572.908 201.94 572.18 200.596V215.744H570.248V201.1C569.296 203.844 568.036 206.308 566.496 208.548L565.628 206.364C567.756 203.704 569.268 200.68 570.164 197.292H566.384V195.416ZM589.288 195.276L589.596 197.152L582.568 198.272C582.596 199.56 582.68 200.792 582.82 201.94L590.38 200.596L590.688 202.444L583.044 203.788C583.1 204.32 583.184 204.824 583.296 205.3C583.548 206.532 583.856 207.624 584.22 208.632C585.62 207.372 586.88 205.944 588 204.376L589.54 205.412C588.14 207.372 586.628 209.052 585.004 210.452C585.172 210.788 585.34 211.124 585.564 211.432C586.544 212.776 587.412 213.476 588.196 213.476C588.84 213.476 589.4 212.02 589.848 209.136L591.584 210.284C590.856 213.756 589.792 215.492 588.42 215.492C587.02 215.464 585.676 214.624 584.388 212.972C584.052 212.524 583.772 212.076 583.492 211.628C581.28 213.252 578.9 214.428 576.352 215.156L575.176 213.532C577.976 212.692 580.468 211.488 582.652 209.892C582.176 208.8 581.784 207.596 581.476 206.28C581.308 205.552 581.168 204.852 581.056 204.152L576.464 204.964L576.184 203.116L580.804 202.304C580.664 201.1 580.58 199.868 580.524 198.58L576.296 199.252L576.016 197.376L580.468 196.676V190.152H582.512V196.34L589.288 195.276ZM585.844 190.264C587.188 191.552 588.224 192.672 588.952 193.652L587.384 194.744C586.6 193.68 585.564 192.532 584.276 191.244L585.844 190.264ZM606.482 210.2C604.214 212.608 600.518 214.484 595.394 215.828L594.274 214.12C599.482 212.776 603.122 210.956 605.194 208.716C605.53 208.324 605.81 207.904 606.09 207.456H594.526V205.552H607.07C607.798 203.816 608.19 201.828 608.274 199.616V196.312H610.234V199.616C610.15 201.828 609.814 203.816 609.198 205.552H618.186V207.456H608.358C608.106 207.904 607.854 208.324 607.602 208.716C611.578 210.284 615.246 212.104 618.55 214.232L617.458 215.968C613.874 213.56 610.234 211.656 606.482 210.2ZM598.25 200.148C600.294 201.016 602.17 202.052 603.85 203.228L602.814 204.824C601.022 203.48 599.146 202.416 597.242 201.66L598.25 200.148ZM600.77 196.144C602.87 197.012 604.802 198.076 606.538 199.336L605.502 200.932C603.626 199.532 601.694 198.44 599.734 197.656L600.77 196.144ZM617.71 192.868V198.244H615.75V194.744H596.878V198.244H594.918V192.868H605.558C605.222 191.916 604.83 191.076 604.41 190.292L606.482 189.956C606.846 190.796 607.21 191.776 607.574 192.868H617.71ZM644.593 191.244V206.728H642.549V193.176H634.149V206.728H632.161V191.244H644.593ZM643.977 215.352H641.065C639.525 215.352 638.769 214.568 638.769 213.028V206.616H640.785V212.608C640.785 213.196 641.065 213.504 641.653 213.504H643.613C644.061 213.504 644.397 213.336 644.593 213.056C644.817 212.692 644.985 211.628 645.097 209.892L646.973 210.48C646.805 212.776 646.469 214.204 645.993 214.708C645.545 215.128 644.873 215.352 643.977 215.352ZM637.285 195.164H639.217V201.996C639.105 205.748 638.349 208.744 636.949 210.984C635.605 213.056 633.365 214.708 630.229 215.884L629.137 214.176C632.161 213 634.289 211.488 635.493 209.64C636.613 207.68 637.229 205.132 637.285 201.996V195.164ZM621.773 200.484H624.993V193.932H621.409V192H630.593V193.932H627.065V200.484H630.201V202.444H627.065V208.8C628.297 208.38 629.473 207.932 630.649 207.456V209.388C627.877 210.508 624.909 211.432 621.745 212.188L621.269 210.256C622.529 210.032 623.761 209.752 624.993 209.416V202.444H621.773V200.484ZM658.988 194.968V214.064H657.028V212.468H651.932V214.876H649.972V194.968H652.576C653.136 193.4 653.528 191.776 653.78 190.096L655.796 190.376C655.46 192.028 655.04 193.568 654.48 194.968H658.988ZM651.932 210.592H657.028V204.46H651.932V210.592ZM651.932 202.64H657.028V196.872H651.932V202.64ZM663.86 201.464C665.876 203.788 667.388 205.832 668.452 207.568L666.856 208.688C665.708 206.84 664.168 204.768 662.236 202.472L663.86 201.464ZM673.464 194.996C673.464 204.292 673.324 210.06 673.044 212.244C672.764 214.372 671.476 215.464 669.124 215.464C668.564 215.464 667.612 215.408 666.268 215.352L665.792 213.504C666.968 213.56 667.976 213.588 668.844 213.588C670.16 213.588 670.916 212.86 671.14 211.432C671.308 209.864 671.42 205.02 671.476 196.956H663.776C662.992 198.72 662.068 200.316 660.976 201.744L659.772 200.148C661.732 197.404 663.048 194.044 663.776 190.068L665.764 190.32C665.428 191.972 665.036 193.54 664.532 194.996H673.464ZM684.302 193.932H694.214C694.186 192.7 694.186 191.44 694.186 190.152H696.146C696.146 191.468 696.146 192.728 696.174 193.932H699.03C698.638 192.868 698.246 191.916 697.798 191.048L699.618 190.74C699.982 191.664 700.346 192.728 700.71 193.932H702.082V195.836H696.202C696.286 200.148 696.482 203.676 696.79 206.392C697.882 204.04 698.75 201.324 699.366 198.188L701.102 198.916C700.178 203.116 698.89 206.644 697.238 209.444C697.798 212.104 698.414 213.476 699.142 213.588C699.702 213.532 700.234 212.104 700.794 209.36L702.306 210.592C701.41 213.952 700.374 215.632 699.142 215.632C698.218 215.632 697.406 214.904 696.678 213.448C696.398 212.86 696.118 212.188 695.894 211.46C694.522 213.252 692.954 214.68 691.218 215.744L689.986 214.148C692.058 212.944 693.85 211.236 695.306 209.024C695.138 208.24 695.026 207.428 694.914 206.532C694.55 203.732 694.326 200.148 694.242 195.836H684.302V193.932ZM685.422 198.608H692.534V206.504H685.422V198.608ZM690.742 204.852V200.288H687.186V204.852H690.742ZM692.786 208.24V210.06C690.042 211.124 687.074 212.02 683.882 212.748L683.406 210.816C686.654 210.256 689.79 209.388 692.786 208.24ZM676.882 197.572H679.626V190.18H681.614V197.572H684.274V199.532H681.614V207.988C682.51 207.596 683.406 207.148 684.246 206.7V208.716C682.034 209.892 679.654 210.872 677.134 211.656L676.63 209.612C677.638 209.36 678.646 209.08 679.626 208.744V199.532H676.882V197.572ZM712.949 214.064V215.716H710.933V205.832C709.197 206.392 707.377 206.896 705.417 207.372L704.353 205.44C709.197 204.432 713.229 203.144 716.449 201.52C715.217 200.484 713.537 199.364 711.409 198.16L713.145 197.068C715.273 198.384 716.953 199.56 718.157 200.596C721.013 198.888 723.085 196.9 724.401 194.604H714.041C712.137 196.368 709.729 197.936 706.761 199.336L705.417 197.6C710.205 195.556 713.425 193.036 715.105 190.068L717.317 190.32C716.869 191.16 716.365 191.944 715.805 192.7H726.725V194.492C724.709 198.328 721.097 201.464 715.833 203.9H727.509V215.716H725.465V214.064H712.949ZM725.465 212.104V205.776H712.949V212.104H725.465ZM756.156 192.028V214.68H754.196V212.468H747.392V214.96H745.46V192.028H756.156ZM747.392 210.564H754.196V193.904H747.392V210.564ZM732.664 197.824H737.564V193.792C736.164 194.016 734.736 194.184 733.28 194.296L732.636 192.504C736.808 192.168 740.28 191.468 743.08 190.404L744.032 192.084C742.576 192.616 741.092 193.064 739.524 193.4V197.824H744.312V199.7H739.524V201.1C741.148 202.528 742.772 204.152 744.424 206L743.248 207.736C741.792 205.748 740.56 204.152 739.524 202.976V215.604H737.564V203.172C736.36 205.832 734.764 208.24 732.776 210.396L731.936 208.212C734.54 205.748 736.416 202.976 737.564 199.896V199.7H732.664V197.824ZM767.078 192.616C769.318 192.616 771.11 193.12 772.398 194.156C773.742 195.22 774.498 196.816 774.694 198.916H772.426C772.174 197.46 771.614 196.396 770.746 195.696C769.85 194.968 768.59 194.632 766.966 194.632C765.482 194.632 764.334 194.856 763.494 195.36C762.542 195.92 762.066 196.76 762.066 197.908C762.066 198.916 762.626 199.728 763.774 200.344C764.278 200.624 765.51 201.044 767.442 201.604C770.074 202.388 771.81 203.032 772.65 203.536C774.302 204.544 775.142 205.944 775.142 207.764C775.142 209.5 774.442 210.9 773.042 211.908C771.642 212.888 769.766 213.392 767.386 213.392C765.034 213.392 763.186 212.888 761.842 211.88C760.274 210.676 759.406 208.856 759.238 206.392H761.506C761.702 208.128 762.318 209.416 763.326 210.228C764.25 210.956 765.594 211.348 767.386 211.348C769.01 211.348 770.354 211.04 771.362 210.424C772.37 209.808 772.874 208.968 772.874 207.904C772.874 206.644 772.202 205.664 770.886 204.964C770.326 204.628 768.898 204.152 766.658 203.508C764.25 202.78 762.71 202.22 762.066 201.884C760.526 200.988 759.77 199.7 759.77 198.02C759.77 196.284 760.498 194.912 761.982 193.96C763.298 193.064 765.006 192.616 767.078 192.616ZM784.437 192.616C786.677 192.616 788.469 193.12 789.757 194.156C791.101 195.22 791.857 196.816 792.053 198.916H789.785C789.533 197.46 788.973 196.396 788.105 195.696C787.209 194.968 785.949 194.632 784.325 194.632C782.841 194.632 781.693 194.856 780.853 195.36C779.901 195.92 779.425 196.76 779.425 197.908C779.425 198.916 779.985 199.728 781.133 200.344C781.637 200.624 782.869 201.044 784.801 201.604C787.433 202.388 789.169 203.032 790.009 203.536C791.661 204.544 792.501 205.944 792.501 207.764C792.501 209.5 791.801 210.9 790.401 211.908C789.001 212.888 787.125 213.392 784.745 213.392C782.393 213.392 780.545 212.888 779.201 211.88C777.633 210.676 776.765 208.856 776.597 206.392H778.865C779.061 208.128 779.677 209.416 780.685 210.228C781.609 210.956 782.953 211.348 784.745 211.348C786.369 211.348 787.713 211.04 788.721 210.424C789.729 209.808 790.233 208.968 790.233 207.904C790.233 206.644 789.561 205.664 788.245 204.964C787.685 204.628 786.257 204.152 784.017 203.508C781.609 202.78 780.069 202.22 779.425 201.884C777.885 200.988 777.129 199.7 777.129 198.02C777.129 196.284 777.857 194.912 779.341 193.96C780.657 193.064 782.365 192.616 784.437 192.616ZM795.075 193.008H797.343V211.012H808.907V213H795.075V193.008ZM827.778 193.428H819.91V191.44H835.618V193.428H829.822V201.296H835.226V203.172H829.822V212.86H836.178V214.848H819.042V212.86H821.898V198.048H823.858V212.86H827.778V193.428ZM813.834 190.404C815.654 191.86 817.194 193.288 818.454 194.716L817.082 196.116C815.934 194.716 814.394 193.26 812.434 191.72L813.834 190.404ZM810.418 198.692H816.41V210.788C817.306 210.004 818.258 209.108 819.294 208.1L819.826 210.256C818.202 211.824 816.494 213.252 814.674 214.512L813.89 212.692C814.282 212.356 814.478 211.964 814.478 211.516V200.624H810.418V198.692ZM848.305 190.012H850.321V194.912H858.525V195.892L857.965 202.444H861.941C861.913 207.82 861.465 210.956 860.625 211.88C860.233 212.3 859.673 212.58 858.945 212.748C858.329 212.86 857.741 212.944 857.125 212.944H855.277L854.745 211.04C855.697 211.04 856.621 211.068 857.461 211.068C858.301 211.04 858.889 210.816 859.253 210.368C859.645 209.892 859.869 207.904 859.953 204.376H850.321V215.828H848.305V204.376H838.365V202.444H848.305V196.844H839.961V194.912H848.305V190.012ZM850.321 202.444H856.005L856.537 196.844H850.321V202.444ZM857.377 190.124C859.449 191.188 861.353 192.448 863.061 193.904L861.997 195.584C860.149 193.904 858.273 192.588 856.341 191.636L857.377 190.124ZM881.432 195.416C880.536 197.656 879.416 199.56 878.044 201.072L876.756 199.504C878.744 197.124 880.088 193.932 880.788 189.9L882.86 190.292C882.636 191.412 882.384 192.448 882.104 193.456H890.448V195.416H881.432ZM884.372 197.32C885.884 199.224 887.032 200.876 887.816 202.304L886.136 203.452C885.296 201.912 884.176 200.204 882.748 198.328L884.372 197.32ZM873.536 190.04H875.58V203.872H873.536V190.04ZM867.74 191.412H869.728V202.836H867.74V191.412ZM888.152 205.272V213.056H891.148V214.876H865.808V213.056H868.944V205.272H888.152ZM870.876 213.056H874.6V207.12H870.876V213.056ZM876.532 213.056H880.452V207.12H876.532V213.056ZM882.384 213.056H886.22V207.12H882.384V213.056ZM895.21 190.712C896.778 191.944 898.094 193.204 899.158 194.436L897.842 195.78C896.89 194.604 895.546 193.344 893.838 192.028L895.21 190.712ZM894.762 197.6C896.274 198.944 897.562 200.26 898.598 201.604L897.282 202.92C896.33 201.66 895.042 200.316 893.39 198.888L894.762 197.6ZM897.226 205.132L898.934 205.804C897.87 209.22 896.666 212.44 895.378 215.464L893.53 214.68C894.93 211.572 896.162 208.38 897.226 205.132ZM909.658 191.496V208.576H907.866V193.232H902.07V208.744H900.278V191.496H909.658ZM906.662 209.892C908.37 211.404 909.798 212.944 910.946 214.456L909.602 215.8C908.594 214.316 907.222 212.748 905.43 211.068L906.662 209.892ZM904.142 195.164H905.822V204.04C905.766 207.232 905.262 209.78 904.31 211.684C903.386 213.42 901.874 214.82 899.802 215.828L898.738 214.148C900.754 213.196 902.154 211.936 902.938 210.368C903.666 208.744 904.086 206.644 904.142 204.04V195.164ZM915.706 215.576H912.626L912.206 213.7C913.186 213.784 914.138 213.84 915.034 213.84C915.678 213.84 916.014 213.448 916.014 212.72V190.292H917.918V213.196C917.918 214.764 917.162 215.576 915.706 215.576ZM911.87 192.588H913.634V210.06H911.87V192.588ZM922.569 191.384H945.193V193.344H934.777V203.928H946.257V205.86H934.777V215.772H932.705V205.86H921.449V203.928H932.705V193.344H922.569V191.384ZM925.985 195.136C927.049 197.096 928.057 199.224 929.009 201.548L927.133 202.472C926.181 200.064 925.173 197.936 924.109 196.06L925.985 195.136ZM941.861 194.996L943.709 195.864C942.869 198.076 941.749 200.232 940.377 202.36L938.585 201.436C939.957 199.252 941.049 197.124 941.861 194.996ZM970.872 204.152V215.828H968.828V214.428H954.212V215.828H952.168V204.152H970.872ZM954.212 212.496H968.828V206.084H954.212V212.496ZM950.18 201.268L949.788 199.364C952.252 198.524 955.304 195.416 958.944 190.068L961.016 190.768C958.496 194.352 955.948 197.208 953.428 199.28C958.804 199.056 963.9 198.692 968.716 198.244C967.652 196.732 966.56 195.304 965.44 194.016L967.26 193.148C969.668 195.948 971.908 199.056 973.98 202.444L972.02 203.396C971.32 202.22 970.62 201.128 969.948 200.064C964.04 200.596 957.46 200.988 950.18 201.268Z" fill="white"/>
</svg>
