<?xml version="1.0" standalone="no"?><!DOCTYPE svg PUBLIC "-//W3C//DTD SVG 1.1//EN" "http://www.w3.org/Graphics/SVG/1.1/DTD/svg11.dtd"><svg t="1664935115960" class="icon" viewBox="0 0 1024 1024" version="1.1" xmlns="http://www.w3.org/2000/svg" p-id="3752" xmlns:xlink="http://www.w3.org/1999/xlink" width="200" height="200"><path d="M523.776 86.016l-3.072-0.512v0.512L149.504 184.32l21.504 392.704c0 2.56 0 52.224 15.872 81.92 79.872 150.016 268.8 241.152 329.728 268.288 0 0 2.048 1.024 3.584 1.536v1.024c0.512 0 1.024-0.512 1.536-0.512s1.536 0.512 1.536 0.512v-1.024c1.536-0.512 2.56-1.536 3.072-1.536 60.416-27.136 249.856-118.272 329.728-268.288 15.872-29.696 17.408-79.36 17.408-81.92l22.016-392.704-371.712-98.304zM302.08 700.416V243.2h425.472v206.336c-13.312-7.68-27.648-13.312-42.496-16.896V283.136h-343.04v374.784h172.544c8.704 16.384 20.48 30.72 34.816 42.496H302.08z m193.536-109.056H400.384v-39.936h98.304c-2.048 10.24-3.072 20.992-3.072 31.744-0.512 3.072-0.512 5.632 0 8.192zM400.384 482.304v-39.936h185.344c-20.48 9.216-38.4 23.04-52.736 39.936H400.384z m0-109.056v-39.936h236.544v39.936H400.384z m250.88 346.112c-74.24 0-134.656-60.416-134.656-134.656s60.416-134.656 134.656-134.656 134.656 60.416 134.656 134.656-60.416 134.656-134.656 134.656z m0-233.472c-54.272 0-98.304 44.032-98.304 98.304s44.032 98.304 98.304 98.304 98.304-44.032 98.304-98.304-44.032-98.304-98.304-98.304z m46.08 151.552l-19.456-8.192-8.192 19.456-17.92-42.496-17.408 42.496-8.192-19.456-19.456 8.192 16.384-39.424-22.016-36.352 25.6-42.496h51.2l25.6 42.496-22.528 37.376 16.384 38.4z" fill="#63BA4D" p-id="3753"></path></svg>